<?xml version="1.0" standalone="no"?>
<!DOCTYPE svg PUBLIC "-//W3C//DTD SVG 20010904//EN"
 "http://www.w3.org/TR/2001/REC-SVG-20010904/DTD/svg10.dtd">
<svg version="1.0" xmlns="http://www.w3.org/2000/svg"
 width="1718.000000pt" height="1718.000000pt" viewBox="0 0 1718.000000 1718.000000"
 preserveAspectRatio="xMidYMid meet">
<metadata>
Created by potrace 1.14, written by Peter Selinger 2001-2017
</metadata>
<g transform="translate(0.000000,1718.000000) scale(0.100000,-0.100000)"
fill="#000000" stroke="none">
<path d="M0 8590 l0 -3000 8590 0 8590 0 0 3000 0 3000 -8590 0 -8590 0 0
-3000z m16966 5 c0 -1523 -3 -2775 -7 -2780 -5 -7 -2805 -10 -8371 -10 l-8363
0 -1 2781 -1 2782 8371 -2 8371 -1 1 -2770z"/>
<path d="M1345 10405 c-7 -31 -11 -145 -5 -145 3 0 3 -36 0 -80 -3 -44 -3 -80
0 -80 3 0 3 -36 0 -80 -3 -44 -3 -80 0 -80 3 0 3 -36 0 -80 -3 -44 -3 -80 0
-80 3 0 3 -36 0 -80 -3 -44 -3 -80 0 -80 3 0 3 -612 0 -1360 -3 -748 -3 -1360
0 -1360 3 0 3 -27 2 -60 -5 -78 1 -94 28 -80 11 6 20 7 20 3 0 -6 6135 -9
6205 -4 7 1 11 576 11 1831 0 1638 -2 1830 -16 1831 -8 0 -1416 1 -3128 2
-3105 2 -3113 2 -3117 -18z"/>
<path d="M10615 9262 c-3 -3 -5 -113 -5 -244 l0 -240 -31 32 c-39 38 -120 80
-163 84 -18 2 -37 5 -42 8 -11 6 -104 3 -158 -6 -69 -10 -163 -62 -224 -123
-47 -47 -90 -111 -97 -143 -1 -3 -9 -31 -19 -64 -26 -84 -25 -221 2 -311 34
-112 105 -208 193 -263 155 -94 392 -81 507 29 18 17 36 28 39 25 4 -4 6 -29
4 -56 l-2 -50 103 0 103 0 -1 658 c-1 361 -2 660 -3 664 -1 8 -197 8 -206 0z
m-161 -571 c150 -68 204 -278 114 -446 -32 -60 -113 -115 -174 -118 -19 -1
-34 -5 -34 -9 0 -4 -6 -6 -12 -3 -7 2 -29 6 -49 8 -165 20 -269 215 -212 398
29 93 110 174 186 186 17 3 33 6 35 8 9 9 110 -8 146 -24z"/>
<path d="M15310 8605 l0 -665 100 0 100 0 0 62 0 63 26 -28 c125 -135 385
-146 551 -24 65 48 98 88 135 162 27 54 41 97 43 132 0 12 3 24 6 27 3 3 4 50
3 104 -5 195 -92 340 -248 417 -78 39 -107 46 -211 49 -92 2 -209 -35 -245
-79 -7 -9 -21 -20 -30 -25 -16 -9 -17 8 -17 228 l1 237 -107 2 -107 3 0 -665z
m591 87 c24 -11 58 -34 75 -51 35 -34 74 -109 74 -140 0 -11 4 -31 10 -45 5
-14 6 -26 2 -26 -4 0 -7 -24 -8 -53 0 -34 -8 -70 -23 -100 -25 -52 -84 -121
-95 -110 -3 3 -6 2 -6 -4 0 -14 -45 -32 -97 -38 -23 -2 -46 -6 -50 -7 -15 -4
-87 14 -116 29 -47 24 -105 92 -126 147 -15 39 -19 71 -17 136 3 81 27 170 46
170 5 0 11 8 15 19 5 16 70 67 92 73 5 1 23 7 42 14 47 16 130 9 182 -14z"/>
<path d="M8693 9187 c-3 -5 -6 -1070 -3 -1225 l0 -22 448 2 447 3 0 95 0 94
-337 0 -338 0 0 172 0 172 36 4 c19 2 38 0 40 -4 3 -5 10 -6 15 -2 8 5 196 8
224 3 6 -1 15 0 20 1 6 1 62 1 126 1 l115 -2 2 98 2 98 -289 -1 -289 -1 -2
163 -1 163 322 0 c176 0 323 2 326 5 8 8 7 175 -1 183 -9 10 -857 10 -863 0z"/>
<path d="M12546 9190 c-10 -4 -13 -129 -12 -627 l0 -623 111 0 111 0 -1 248
c0 136 1 256 3 268 4 20 8 21 307 21 214 0 305 -3 308 -11 2 -6 3 -127 2 -268
l-1 -258 111 0 111 0 0 625 c0 434 -3 625 -10 626 -71 6 -199 2 -205 -6 -4 -5
-7 -121 -7 -257 1 -212 -1 -247 -14 -250 -27 -7 -585 -3 -595 4 -6 4 -10 100
-9 257 0 171 -3 251 -10 252 -48 4 -189 3 -200 -1z"/>
<path d="M11221 8580 c1 -332 6 -376 51 -468 101 -210 451 -249 618 -69 l20
21 0 -62 0 -62 100 0 100 0 0 478 0 478 -105 0 c-100 1 -105 0 -105 -20 -1
-12 -2 -145 -4 -296 -3 -259 -4 -278 -25 -317 -64 -127 -219 -177 -335 -109
-38 22 -88 76 -70 76 4 0 2 6 -4 13 -21 24 -25 83 -27 362 -2 154 -3 283 -4
286 0 3 -48 5 -106 5 l-106 -1 2 -315z"/>
<path d="M14017 8885 c-9 -28 2 -625 12 -669 34 -143 113 -230 247 -271 45
-14 168 -21 204 -11 8 2 30 7 48 11 18 4 35 12 38 16 3 5 13 9 22 9 9 0 37 18
62 40 24 21 47 37 49 34 3 -3 6 -26 6 -52 l0 -47 101 -3 100 -3 0 479 0 478
-100 -2 c-56 0 -103 -2 -106 -3 -3 0 -6 -124 -6 -273 -1 -234 -3 -281 -18
-326 -32 -96 -106 -157 -200 -165 -99 -10 -177 28 -219 106 -21 40 -22 55 -27
353 l-5 310 -102 0 c-63 0 -104 -4 -106 -11z"/>
</g>
</svg>
